<?xml version="1.0" standalone="no"?>
<!DOCTYPE svg PUBLIC "-//W3C//DTD SVG 20010904//EN"
 "http://www.w3.org/TR/2001/REC-SVG-20010904/DTD/svg10.dtd">
<svg version="1.0" xmlns="http://www.w3.org/2000/svg"
 width="612.000000pt" height="612.000000pt" viewBox="0 0 612.000000 612.000000"
 preserveAspectRatio="xMidYMid meet">

<g transform="translate(0.000000,612.000000) scale(0.100000,-0.100000)"
fill="#000000" stroke="none">
<path d="M2143 4335 c-155 -34 -204 -94 -158 -194 63 -135 315 -328 650 -498
194 -98 536 -228 653 -248 25 -4 42 -12 42 -20 0 -7 -84 -152 -187 -322 -551
-911 -699 -1155 -708 -1172 -6 -10 -17 -26 -24 -35 -8 -9 -12 -19 -9 -21 3 -3
47 39 98 92 51 54 189 198 308 321 l215 222 588 0 589 0 0 945 0 945 -997 -1
c-797 0 -1010 -3 -1060 -14z m375 -205 c2 -36 0 -80 -3 -98 l-6 -33 -92 3 -92
3 -3 84 c-2 46 0 90 2 98 4 11 27 13 98 11 l92 -3 4 -65z m380 -27 l-3 -98
-89 -3 c-65 -2 -92 1 -98 10 -8 14 -10 140 -2 171 5 15 18 17 100 17 l95 0 -3
-97z m382 -3 l0 -100 -95 0 -95 0 0 100 0 100 95 0 95 0 0 -100z m385 0 l0
-95 -95 0 -95 0 -3 84 c-2 46 0 90 2 98 4 11 27 13 98 11 l93 -3 0 -95z m385
0 l0 -100 -94 0 c-109 0 -106 -3 -106 100 0 103 -3 100 106 100 l94 0 0 -100z
m-652 -332 c-3 -31 -5 -33 -38 -30 -19 2 -45 0 -58 -3 -20 -5 -23 -11 -20 -43
l3 -37 55 -5 c43 -4 56 -9 58 -24 6 -28 -14 -41 -66 -41 l-47 0 -3 -67 -3 -68
-39 0 -40 0 0 168 c0 93 3 172 7 175 3 4 49 7 100 7 l94 0 -3 -32z m113 17 c1
-8 3 -19 4 -25 1 -5 3 -64 4 -129 l1 -120 53 -3 c49 -3 52 -5 55 -31 l3 -28
-98 3 -98 3 -3 150 c-3 188 -2 195 43 195 24 0 35 -5 36 -15z m344 -19 c0 -28
-1 -28 -60 -30 l-60 -1 -3 -37 -3 -38 55 0 c55 0 56 0 56 -29 0 -29 -2 -30
-52 -33 l-53 -3 -3 -42 -3 -43 65 0 c68 0 81 -7 71 -40 -6 -19 -14 -20 -108
-18 l-102 3 -3 150 c-4 211 -12 196 106 193 l97 -3 0 -29z m132 -21 c15 -30
30 -55 34 -55 4 0 15 17 24 38 10 20 24 45 33 55 16 18 67 24 76 8 3 -5 -13
-43 -35 -86 l-41 -78 41 -77 c22 -43 41 -82 41 -89 0 -6 -17 -11 -40 -11 -39
0 -41 2 -67 55 -15 30 -31 54 -36 52 -5 -1 -20 -25 -35 -52 -33 -61 -35 -63
-72 -57 -40 6 -38 21 10 105 l40 69 -27 54 c-16 30 -34 66 -41 79 -17 33 -8
45 34 45 32 0 36 -4 61 -55z m-709 -1032 l-3 -98 -95 0 -95 0 -3 84 c-2 46 -1
90 2 98 4 9 31 13 101 13 l96 0 -3 -97z m387 -3 l0 -95 -94 -3 c-64 -2 -97 1
-102 9 -8 14 -11 146 -3 171 5 17 16 18 102 16 l97 -3 0 -95z m383 15 c5 -126
9 -121 -103 -117 l-95 3 0 93 c0 51 3 96 7 100 4 4 48 5 98 4 l90 -3 3 -80z"/>
<path d="M1921 3875 c0 -11 6 -51 12 -90 l13 -70 18 59 19 58 -32 31 c-27 27
-31 29 -30 12z"/>
<path d="M2141 3677 c-20 -53 -44 -137 -40 -140 2 -3 33 -25 68 -51 l65 -47
15 28 c8 15 25 51 37 80 l23 52 -80 50 c-78 50 -80 51 -88 28z"/>
<path d="M2448 3427 c-15 -34 -30 -70 -34 -79 -4 -13 11 -26 75 -57 44 -23 83
-41 85 -41 5 0 71 115 81 142 5 13 -10 25 -74 57 -44 23 -86 41 -93 41 -7 0
-25 -29 -40 -63z"/>
<path d="M2810 3255 c-22 -40 -40 -77 -40 -82 0 -11 158 -63 173 -57 17 7 91
133 83 141 -4 4 -45 21 -91 39 l-85 32 -40 -73z"/>
<path d="M2096 3040 c-75 -23 -113 -107 -95 -207 12 -62 49 -100 103 -108 49
-7 96 5 110 28 13 21 1 33 -18 18 -8 -7 -34 -11 -57 -9 -31 2 -47 9 -61 29
-28 37 -34 101 -14 153 24 63 66 79 139 51 34 -14 18 26 -18 41 -38 16 -47 16
-89 4z"/>
<path d="M2408 3033 c-16 -4 -18 -20 -18 -154 0 -150 0 -150 23 -147 21 3 22
8 27 128 l5 125 48 -95 c74 -149 82 -160 117 -160 l30 0 0 150 c0 143 -1 150
-20 150 -19 0 -20 -7 -20 -99 0 -55 -4 -102 -8 -105 -5 -3 -25 27 -46 66 -78
147 -86 155 -138 141z"/>
<path d="M2715 3027 c-3 -7 -4 -76 -3 -152 l3 -140 88 -3 c81 -3 88 -1 85 15
-3 15 -15 19 -66 21 l-63 3 3 47 3 47 53 3 c44 3 53 6 50 20 -2 13 -16 18 -56
20 l-53 3 3 42 3 42 60 5 c44 4 60 9 60 20 0 21 -163 28 -170 7z"/>
<path d="M2264 3017 c-2 -7 -3 -74 -2 -148 l3 -134 25 0 25 0 3 148 3 147 -26
0 c-14 0 -28 -6 -31 -13z"/>
</g>
</svg>
